<?xml version="1.0" encoding="UTF-8"?>
<svg xmlns="http://www.w3.org/2000/svg" viewBox="0 0 841.89 507.42">
  <defs>
    <style>
      .cls-1 {
        fill: #ac3014;
      }

      .cls-2 {
        opacity: .2;
      }
    </style>
  </defs>
  <g id="arriere_plan" data-name="arriere plan">
    <g class="cls-2">
      <g id="logo">
        <g>
          <path class="cls-1" d="M316.07,269.24c-.82.1-1.64.15-2.44.15-6.08,0-11.52-2.78-14.89-7.7-4.03-5.91-4.22-13.85-.52-20.7L420.42,14.66c.14-.26.29-.51.44-.76-5,1.59-9.37,5.18-12.02,10.09l-122.19,226.32c-3.37,6.26-3.22,13.47.44,18.82,3,4.43,7.9,6.92,13.39,6.92.73,0,1.48-.05,2.22-.13l244.38-29.37c4.79-.57,9.24-2.96,12.54-6.56l-243.54,29.27Z"/>
          <path class="cls-1" d="M432.52,190.14c-11.23-9.96-17.68-27-17.68-46.75,0-6.4,1.95-14.67,6.62-21.41-13.04,5.24-17.97,19.94-17.97,29.88,0,19.23,6.22,35.77,17.06,45.4,8.39,7.45,19.32,10.61,31.57,9.13,12.14-1.46,19.78-5.25,25.12-9.13-3.41,1.06-7.28,1.93-11.73,2.47-12.79,1.54-24.21-1.78-33-9.58Z"/>
          <path class="cls-1" d="M432.98,92.68c13.39-1.61,23.8,1.64,30.69,3.78,3.98,1.25,6.84,2.14,9.12,1.86,2.72-.33,4.4-.99,5.9-1.58,1.19-.47,2.21-.88,3.68-1.05.44-.05.89-.06,1.35-.04l3.48.21-2.58-4.15c-2.29-.09-4.93-.9-8.33-1.97-7.15-2.23-16.93-5.28-29.93-3.72-11.55,1.39-23.49,5.67-34.52,12.18,7-2.78,14.14-4.68,21.14-5.52Z"/>
          <path class="cls-1" d="M508.28,188.36c0,6.85-5.74,19.5-12.04,25.08-1.6.2-3.58,1.04-5.97,2.28,3.96-6.46,6.67-14.29,6.67-18.89,0-2.77-.98-6.42-3.13-8.38,1.92-1.58,3.5-3.09,4.84-4.38,1.83-1.78,3.58-3.45,4.54-3.57,1.01-.12,1.78.12,2.52.77,1.52,1.35,2.57,4.26,2.57,7.09Z"/>
          <path class="cls-1" d="M509.31,131.47c-1.29,2.42-3.03,4.59-5.26,6.27-1.05.3-2.15.51-3.3.65-.67.08-1.31.12-1.93.12,1.31-3.23,1.95-6.71,1.95-10.04,0-1.5-.06-3.03-.15-4.54l-.5-7.27,9.19,14.81Z"/>
        </g>
        <path class="cls-1" d="M239.64,90.13c-3.19-.71-5.82-2.64-7.41-5.44-.92-1.61-1.41-3.44-1.5-5.32-2.7,1.46-4.92,3.94-5.94,7.02-.97,2.94-.7,6.06.73,8.57,1.33,2.35,3.54,3.97,6.23,4.57l114.91,25.56,5.41-9.95-112.42-25.01Z"/>
        <path class="cls-1" d="M248.45,231.35c-1.96,1.04-4.09,1.56-6.19,1.56-1.37,0-2.72-.22-4-.68-3.01-1.06-5.36-3.26-6.61-6.2-.58-1.35-.87-2.77-.93-4.21-5.38,2.9-7.95,9.45-5.71,14.66,1.05,2.47,3.04,4.32,5.56,5.21,1.08.39,2.22.57,3.4.57,1.8,0,3.64-.45,5.33-1.34l62.39-32.92,3.6-6.64-56.84,29.99Z"/>
      </g>
      <g id="typo_nom" data-name="typo nom">
        <g>
          <path class="cls-1" d="M116.39,488.94c-9.79,1.17-18.04,1.93-25.22,2.33l-2.2.21c-6.18.53-11.51,1-17.11,1.67-6.51.79-13.5,1.87-19.13,2.76-6.49,1.23-12.87,2.22-19.51,3.02-1.15.15-2.3.21-3.42.21-5.45,0-10.41-1.6-13.69-4.51-2.9-2.58-4.44-6.08-4.44-10.15,0-1.91.23-3.49.62-4.85-1.43,1.07-2.96,1.69-4.44,2.28-3.68,1.48-7.85,3.14-7.85,11.14,0,3.56,1.51,6.77,4.37,9.3,4.06,3.6,9.81,5.08,14.46,5.08.82,0,1.62-.05,2.36-.13,6.61-.8,12.98-1.79,19.37-3.01,5.66-.88,12.7-1.98,19.25-2.77,5.64-.68,10.99-1.15,17.18-1.68l2.25-.21c7.15-.39,15.36-1.16,25.1-2.32,18.79-2.26,35.09-8.74,48.13-18.97-10.68,5.41-22.79,9-36.09,10.6Z"/>
          <path class="cls-1" d="M134.37,407.02c0,24.68-5.95,40.81-17.72,48.15-.83.16-1.68.29-2.55.39-.09.01-.17.02-.25.03,5.89-9.11,8.85-22.47,8.85-40.01,0-25.11-4.56-41.88-13.53-49.83-2.65-2.36-5.67-3.97-9.16-4.87v-4.74c0-.87.01-1.7.03-2.48.28-.04.58-.08.9-.12,1.79-.21,3.48-.32,5.09-.32,6.41,0,11.38,1.73,15.41,5.31,8.58,7.6,12.93,23.92,12.93,48.49Z"/>
          <path class="cls-1" d="M12.14,365.98c4.39,1.35,8.54,2.64,8.31,14.37l-1.81,79.07c-.14,6.63-.95,11.15-2.16,14.31,1.38-.94,2.86-1.54,4.18-2.07,4.57-1.84,9.3-3.74,9.65-20.85l1.81-79.07c.21-10.36-2.83-11.29-7.04-12.59-3.8-1.17-9.55-2.95-9.55-12.15,0-2.04.39-3.93,1.12-5.67-8.32,2.81-12.79,7.7-12.79,14.24,0,7.86,4.6,9.27,8.28,10.41Z"/>
        </g>
        <g>
          <path class="cls-1" d="M313.17,416.1c-3.03,4.67-7.79,6.06-12.49,6.63l-22.61,2.71c-2.28-1.17-4.37-2.65-6.1-4.39l41.2-4.95Z"/>
          <path class="cls-1" d="M280.41,384c-.23.03-.45.05-.67.08-5.62.68-12.9,3.2-13.58-3.63,1.55-1.35,3.34-2.28,5.27-2.52.51-.06.99-.08,1.45-.08,2.05,0,3.75.58,5.07,1.74,1.18,1.05,2.02,2.57,2.46,4.41Z"/>
          <path class="cls-1" d="M290.1,471.63c-10.36,6.17-22.72,10.53-32.82,11.75-3.3.39-6.52.59-9.64.59-14.78,0-27.46-4.4-37.1-12.96-9.3-8.24-15.25-20.13-16.87-33.39,9.17-14.55,13.73-31.55,14.22-48.63,1.54-1.97,3.2-3.87,4.97-5.71,3.97-4.12,8.36-7.75,13.05-10.86-13,13.1-21.03,30.57-21.03,49.19,0,16.7,6.53,32.08,17.94,42.19,9.97,8.86,23.08,13.41,38.29,13.41,3.2,0,6.48-.2,9.86-.6,5.86-.7,12.51-2.44,19.13-4.98Z"/>
        </g>
        <path class="cls-1" d="M399.77,459.4c-7.79,7.27-23.75,9.1-32.64,10.11l-3.84.45c-4.6.58-11.56,1.46-18.48,1.46-7.79,0-15.57-1.11-19.96-4.98-2.46-2.18-3.71-5.02-3.71-8.46,0-5.12,3.37-7.1,6.35-8.86,2.63-1.54,5.11-3.01,6.23-6.59,2.87-9.39,2.87-37.93,2.87-48.67,0-1.24,0-2.66.02-4.2.01-1.23.01-2.56.01-3.94.02-2.17.01-4.49-.02-6.86-.09-7.3-.45-15.09-1.57-20.56-1.57-7.6-5.38-9.39-9.05-11.13-3.65-1.72-7.79-3.67-7.79-11.07s6.37-13,15.09-17.88c-2.17,2.86-3.43,5.96-3.43,9.3,0,8.56,5.11,10.97,8.84,12.72,3.58,1.7,6.66,3.15,8.05,9.85,1.68,8.19,1.6,21.92,1.54,30.99-.02,1.55-.02,2.96-.02,4.22,0,10.65,0,38.99-2.79,48.12-.87,2.78-2.62,3.93-5.42,5.57-3.06,1.8-7.24,4.26-7.24,10.42,0,3.92,1.5,7.32,4.33,9.82,4.63,4.09,12.1,5.43,20.76,5.43,5.99,0,12.54-.64,19.11-1.47l3.79-.45c4.71-.54,11.99-1.37,18.97-3.34Z"/>
        <g>
          <path class="cls-1" d="M501.14,444.25c-9.99,7.23-23.53,12.65-35.72,14.11-1.24.16-3.26.34-5.77.34-6.93,0-17.61-1.38-25.75-8.58-4.83-4.31-8.12-10.05-9.83-17.18.42-1.16.64-2.42.64-3.79,0-2.59-.75-4.11-1.9-5.1-.08-1.21-.11-2.45-.11-3.72v-46.81c0-2.04,0-3.99-.2-4.61-.5-.06-1.91.17-3.29.39-1.21.19-2.68.41-4.47.63-.9.11-1.75.22-2.51.31-.4.05-.78.1-1.15.15v-12.77c0-4.32.05-8.51.15-12.54l2.23-1.69c-.34,1.86-.3,3.64-.26,4.86.02.46.04.94.04,1.44,0,1.02-.02,1.94-.03,2.75-.08,3.74-.13,6.7,2.4,8.93,2.19,1.92,5.08,1.56,10.32.89.77-.09,1.6-.2,2.51-.31,1.81-.22,3.3-.45,4.53-.64.46-.07.94-.15,1.38-.21.02.76.02,1.71.02,2.64v46.81c0,13.71,3.97,24.18,11.81,31.14,8.57,7.6,19.76,9.04,26.97,9.04,2.6,0,4.7-.19,5.95-.34,7.29-.87,14.92-3.05,22.04-6.14Z"/>
          <path class="cls-1" d="M514.31,351.63c-1.14,5.38-4.13,6.83-11.41,7.71l-2.07.25v-6.34s.06-.01.09-.01l13.39-1.61Z"/>
        </g>
        <g>
          <path class="cls-1" d="M595.02,391.72v.51c0,2.06-.09,3.86-.28,5.41-4.02-1.14-6.11-5.4-6.4-9.84,1.33-1.02,2.89-1.71,4.6-1.92.27-.02.49-.04.67-.04.48,0,.7.09.74.11.67.61.67,4.1.67,5.77Z"/>
          <path class="cls-1" d="M594.31,354.94c-4.29.59-8.29,1.39-12,2.36-.47-4.07-1.5-8.23-3.81-10.27-.06-.06-.12-.09-.19-.14,2.9-4.16,5.68-7.42,9.41-7.87,1.7-.2,2.53.32,3.06.79,2.97,2.64,3.46,10.37,3.53,15.13Z"/>
          <path class="cls-1" d="M528.16,371.58c2.73,2.42,6.51,3.49,10.64,2.99,6.23-.75,10.76-3.43,14.39-6.88-.24.03-.46.08-.7.11-4.66.57-8.94-.65-12.06-3.43-3.05-2.7-4.73-6.65-4.73-11.14,0-5.9,2.84-11.43,7.41-16.45-10.92,6.97-19.06,15.66-19.06,25.02,0,3.95,1.45,7.44,4.11,9.78Z"/>
          <path class="cls-1" d="M627.48,433.77c-13.22,1.58-18.65-3.72-21.89-6.89-.74-.73-1.84-1.8-2.18-1.8h-.01c-.75.1-2.67,1.58-4.21,2.78-1.4,1.1-2.99,2.33-4.9,3.6-.66.47-1.4.97-2.19,1.48.37.33.79.72,1.27,1.2,3.2,3.14,8.07,7.88,20.41,6.4,6.67-.8,13.49-3.78,19.37-7.92-1.88.53-3.78.92-5.68,1.15Z"/>
          <path class="cls-1" d="M528.55,392.81c-.14.02-.28.04-.42.07,3.06-3.16,6.79-6.13,11.19-8.78-2.9,3.17-5.2,6.51-6.9,9.91-1.11-.89-2.42-1.38-3.87-1.2Z"/>
          <path class="cls-1" d="M579.46,438.76c-4.43,3.11-11.59,7.29-22.71,8.63-2.18.26-4.32.39-6.41.39-9.77,0-18.39-2.8-24.28-8.03-4.12-3.66-6.89-8.47-8.19-14.16,4.48-2.73,8.43-5.82,11.52-9.08.17.87.37,1.71.61,2.54,1.51,5.36,4.32,9.93,8.33,13.48,6.23,5.53,15.29,8.49,25.49,8.49,2.17,0,4.38-.13,6.63-.4,3.34-.4,6.33-1.06,9.01-1.86Z"/>
        </g>
        <g>
          <path class="cls-1" d="M812.45,318.84c-12.31,1.48-17.99-7.01-23.47-15.22-6.75-10.1-13.72-20.53-34.48-18.03-5.76.69-10.18,3.26-13.48,6.74,21.69-2.53,29.29,8.83,35.99,18.86,5.41,8.11,10.54,15.77,21.74,14.43,5.64-.68,10.56-3.15,14.37-6.89-.22.03-.44.09-.67.11Z"/>
          <path class="cls-1" d="M776.97,414.04c-8.41,4.38-19.55,9.24-33.44,10.91-3.59.42-7.17.64-10.71.64-20.13,0-39.16-6.87-53.42-19.52-4.05-3.59-7.64-7.56-10.74-11.84.93-2.32,1.45-4.63,1.45-6.84,0-6.96-4.38-2.43-8.18-4.5-2.18-4.58-3.89-9.4-5.09-14.41v-.02c-.23-2.76-.36-6.03-.36-9.88v-22.72c0-.66-.01-1.31-.04-1.95,3.56-16.83,12.6-33.06,26.31-46.9,4.76-4.8,9.95-9.14,15.42-12.98-1.09,1.02-2.17,2.06-3.23,3.13-18.43,18.62-28.57,41.51-28.57,64.45s8.98,42.77,25.31,57.26c14.59,12.94,34.05,19.96,54.62,19.96,3.62,0,7.27-.22,10.93-.65,7.14-.86,13.75-2.38,19.74-4.14Z"/>
        </g>
      </g>
      <path class="cls-1" d="M566.06,169.17l-4.08-6.55-5-1.05,13.86,21.94,41.95,12.5c.25.07.53.15.8.21.7.15,1.4.22,2.1.22,4.96,0,9.82-3.51,11.42-8.57.05-.16.08-.32.13-.47l-61.17-18.22Z"/>
      <path class="cls-1" d="M626.79,140.29c-1.71,4.48-6.09,7.84-10.9,7.97h-.55l-49.87-1.37-7.51-1.57.87,1.39-11.44-.31-11.31-17.9,4.53-.12,6.06,9.72,80.12,2.19Z"/>
      <path class="cls-1" d="M625.72,95.21c-1.59,2.58-4.14,4.63-7.19,5.47-.17.03-.37.08-.53.12l-66.8,14.75-11.63.3,1.25,2-10.07,2.22-9.46-14.97,4.09-1.12,7.34,11.76,93-20.53Z"/>
      <path class="cls-1" d="M519.88,93.75l-5.15-8.25-4.36,2.32,7.4,11.71,102.6-46.69c.22-.1.46-.22.68-.34,3.07-1.64,5.23-4.48,6.1-7.58l-107.28,48.82Z"/>
    </g>
  </g>
  <g id="premier_plan" data-name="premier plan">
    <g id="logo-2" data-name="logo">
      <path class="cls-1" d="M642.13,172.51c-1.56,4.93-6.68,8.12-11.42,7.12-.21-.04-.45-.1-.65-.16l-62.39-18.58-8.84-14.18-.87-1.39,7.51,1.57,70.91,14.88c4.74,1,7.32,5.8,5.75,10.74Z"/>
      <path class="cls-1" d="M641.87,23.72c-1.91-4.39-7.19-5.95-11.81-3.49l-112.68,60.05,4.99,8,114.01-51.88c.19-.09.39-.19.58-.29,4.62-2.46,6.81-8.01,4.91-12.4Z"/>
      <path class="cls-1" d="M564.83,229.93l-244.39,29.37c-12.64,1.52-20.55-11.22-14.22-22.93L428.41,10.04c6.32-11.71,22.13-13.61,28.45-3.42l44.93,72.42c-.57-.04-1.13-.02-1.68.05-3.62.43-4.89,2.07-9.58,2.64-5.53.66-18.94-8.16-39.8-5.65-41.93,5.04-83.01,43.39-83.01,87.03s36.61,73.71,81.31,68.34c19.52-2.35,32.87-11.41,41.24-15.73,2.39-1.24,4.37-2.08,5.97-2.28.01-.01.03-.01.04-.01,10.64-1.28,20.43-22.04,20.43-31.4,0-5.33-2.98-12.2-9.15-11.46-6.6.79-10.64,15.96-37.67,19.21-29.8,3.58-46.62-21.22-46.62-52.72,0-11.7,6.81-27.85,23.2-29.82,36.73-4.41,32.66,31.48,52.35,31.28h0c.62-.01,1.26-.05,1.93-.13,1.15-.14,2.25-.35,3.3-.65,10.52-2.88,16.5-13.05,16.5-24.07,0-1.61-.06-3.15-.16-4.65l58.66,94.56c6.33,10.19-1.58,24.83-14.22,26.35Z"/>
      <path class="cls-1" d="M642.38,72.92c-.75-4.85-5.36-7.68-10.3-6.34l-105.36,28.68,6.99,11.2,100.64-22.22c.14-.03.31-.07.45-.11,4.94-1.34,8.33-6.36,7.58-11.21Z"/>
      <path class="cls-1" d="M642.45,122.32c-.47,5.02-4.88,9.2-9.85,9.33h-.47l-84.14-2.31-7.17-11.49-1.25-2,11.63-.3,83.11-2.11c4.97-.12,8.61,3.85,8.14,8.88Z"/>
      <path class="cls-1" d="M368.32,97.45l-113.11-32.18c-.14-.04-.31-.08-.46-.12-4.72-1.05-9.86,2.08-11.48,7-1.62,4.92.9,9.76,5.62,10.81l113.58,25.27,5.85-10.79Z"/>
      <path class="cls-1" d="M327.88,172l-78.99,36.34c-.16.07-.34.16-.5.25-4.62,2.44-6.84,7.98-4.96,12.38,1.88,4.4,7.16,5.98,11.78,3.54l61.89-32.66,10.77-19.86Z"/>
    </g>
    <g id="typo_nom-2" data-name="typo nom">
      <path class="cls-1" d="M124.1,315.98l-74.08,8.9c-7.95.96-21.13,4.13-21.13,14.59,0,14.77,17.04,1.36,16.59,24.82l-1.82,79.06c-.68,33.26-18.63,17.24-18.63,33.6,0,9.09,9.77,11.78,17.49,10.85,6.59-.8,12.96-1.79,19.32-3.01,6.36-.99,12.95-2.01,19.31-2.77,6.37-.77,12.5-1.28,19.54-1.9,7.05-.39,15.23-1.14,25-2.32,32.86-3.94,55.02-19.6,67.98-40.18,9.17-14.55,13.73-31.55,14.22-48.63.04-1.03.05-2.07.05-3.1,0-40.9-20.67-77.5-83.84-69.91ZM116.65,455.17c-.83.16-1.68.29-2.55.39-.09.01-.17.02-.25.03-12.05,1.39-13.84-3.18-13.84-14.69v-84.76c0-.87.01-1.7.03-2.48.2-6.92,1.62-10.22,10.2-11.24,17.49-2.11,37.49,3.9,37.49,57.07,0,22.03-4.7,50.82-31.08,55.68Z"/>
      <path class="cls-1" d="M336.78,382c0-1.01-.06-2.06-.18-3.14.03,2.37.04,4.69.02,6.86.11-1.15.16-2.39.16-3.72Z"/>
      <path class="cls-1" d="M336.6,378.86c-1.92-17.08-19.16-41.34-55.49-36.98-34.09,4.1-63.85,33.12-63.85,68.11,0,29.32,21.13,56.31,62.03,51.4,20.45-2.46,52.49-19.03,52.49-36.53,0-4.32-4.09-10.87-8.86-10.29-4.78.57-13.18,11.8-30.22,13.85-4.62.56-10.01-.58-14.63-2.98-2.28-1.17-4.37-2.65-6.1-4.39-2.87-2.88-4.72-6.45-4.72-10.47s3.63-3.62,6.13-3.92l49.31-5.93c6.62-.79,12.87-3.25,13.93-15.01.02-2.17.01-4.49-.02-6.86ZM280.41,384c-.23.03-.45.05-.67.08-5.62.68-12.9,3.2-13.58-3.63-.03-.34-.05-.7-.05-1.09,0-7.28,6.14-15.74,13.63-16.64,8.41-1.01,13.41,4.75,13.41,12.93s-6.75,7.71-12.74,8.35Z"/>
      <path class="cls-1" d="M424.71,429.15c0,1.37-.22,2.63-.64,3.79-4.19,11.81-27.96,13.73-36.85,14.8-10.23,1.23-42.04,6.19-42.04-9.95,0-7.95,9.77-6.17,12.5-14.9,2.95-9.68,2.95-38.08,2.95-49.21,0-8.86.46-25.96-1.59-35.94-3.4-16.41-16.81-8.89-16.81-21.84,0-19.77,59.08-31.64,62.26-32.02,7.72-.93,9.54,3.85,9.54,10.67,0,4.54-2.22,24.2-2.8,50.53-.1,4.03-.15,8.22-.15,12.54v44.08c0,4.09-.23,11.62.91,15.11,1.82,5.74,7.73,4.6,10.82,7.24,1.15.99,1.9,2.51,1.9,5.1Z"/>
      <path class="cls-1" d="M536.27,402.33c0,4.75-2.6,9.64-6.88,14.18-3.09,3.26-7.04,6.35-11.52,9.08-8.94,5.48-20,9.53-30.45,10.79-11.59,1.39-40.67-.11-40.67-36.24v-46.81c0-4.09,0-5.68-1.14-6.22-1.13-.55-3.63.21-8.86.83-5.91.71-8.86,1.3-10,.3-1.59-1.4-1.13-3.73-1.13-8.96,0-3.18-.68-5.59,2.04-7.74l51.81-39.17c5.23-3.81,5-3.1,11.81-3.92,9.09-1.09,9.55-2.06,9.55,8.39,0,7.05-.46,14.15.68,16.74.68,1.73,2.27,1.54,8.18.83l15.91-1.91c9.77-1.17,9.77-.49,9.77,9.73,0,12.95-1.59,14.05-10.46,15.12l-15.67,1.88c-7.96.96-8.41,1.24-8.41,9.42v33.86c0,15.22,6.36,18.09,12.5,17.36,6.8-.82,10.84-6.18,14.8-6.99.14-.03.28-.05.42-.07,1.45-.18,2.76.31,3.87,1.2,2.38,1.87,3.85,5.54,3.85,8.32Z"/>
      <path class="cls-1" d="M661.93,382.89c-2.25-1.23-4.29-4.77-5.09-14.41v-.02c-.23-2.76-.36-6.03-.36-9.88v-22.72c0-.66-.01-1.31-.04-1.95-1.33-32.17-35.66-32.85-48.36-31.32-21.59,2.59-59.99,19.7-59.99,39.02,0,7.27,5.45,11.84,12.72,10.97,20.23-2.43,21.59-27.14,35.22-28.78,10.46-1.25,10.68,14.4,10.68,21.9,0,8.18-3.18,8.11-10.22,8.95-.73.09-1.46.18-2.18.29-4.29.59-8.29,1.39-12,2.36-29.52,7.67-41.26,26.08-41.26,40.14,0,22.5,18.86,30.23,37.72,27.96,10.45-1.25,17.26-5.03,22.26-8.58,5-3.33,7.96-6.64,10.68-6.96,5.68-.69,6.14,10.85,24.09,8.69,13.75-1.65,28.29-13.08,32.86-24.32.93-2.32,1.45-4.63,1.45-6.84,0-6.96-4.38-2.43-8.18-4.5ZM607.4,380.61c0,6.81-.69,16.21-9.32,17.25-1.23.15-2.35.06-3.34-.22-4.02-1.14-6.11-5.4-6.4-9.84-.02-.35-.03-.69-.03-1.04,0-7.27,5.23-15.17,12.95-16.09,6.36-.77,6.14,4.94,6.14,9.94Z"/>
      <path class="cls-1" d="M767.36,237.1c22.27-2.68,36.58,6.74,42.49,6.03,5-.6,6.36-2.35,10.23-2.82,9.54-1.15,21.81,11.69,21.81,36.91,0,12.95-7.73,24.79-21.13,26.4-23.4,2.81-17.5-38.12-57.94-33.26-17.5,2.1-24.77,19.34-24.77,31.83,0,33.63,17.95,60.1,49.76,56.28,28.86-3.47,33.18-19.67,40.22-20.51,6.59-.79,9.77,6.55,9.77,12.23,0,10-10.45,32.16-21.81,33.52-7.73.93-23.63,16.02-50.44,19.24-47.72,5.73-86.8-27.29-86.8-72.96s43.85-87.52,88.62-92.9Z"/>
    </g>
  </g>
</svg>