<?xml version="1.0" encoding="UTF-8"?>
<svg id="Calque_1" xmlns="http://www.w3.org/2000/svg" version="1.1" viewBox="0 0 785.2 303.9">
  <!-- Generator: Adobe Illustrator 30.2.1, SVG Export Plug-In . SVG Version: 2.1.1 Build 1)  -->
  <defs>
    <style>
      .st0 {
        fill: #fcd9c5;
      }
    </style>
  </defs>
  <g id="Calque_2">
    <g>
      <g>
        <path class="st0" d="M56.5,235.3l17.3,65.7h-8.4l-10.4-40.1-18,42.6-18-42.9-10.6,40.5H0l17.2-65.8,19.7,47,19.6-47Z"/>
        <path class="st0" d="M90.2,269c0-9.1,3.4-16.9,10.3-23.4s15.1-9.7,24.7-9.7,17.5,3.3,24.3,9.8,10.2,14.3,10.2,23.3-3.4,17.6-10.1,24.2c-6.7,6.6-15,9.9-24.7,9.9s-17.8-3.3-24.6-9.9c-6.7-6.7-10.1-14.7-10.1-24.2ZM150.6,269.4c0-7-2.5-12.8-7.5-17.6-5-4.8-11.2-7.1-18.5-7.1s-12.9,2.4-17.9,7.3c-5,4.8-7.4,10.7-7.4,17.5s2.5,12.7,7.6,17.5c5.1,4.8,11.3,7.1,18.7,7.1s12.7-2.4,17.6-7.3c4.9-4.9,7.4-10.7,7.4-17.4Z"/>
        <path class="st0" d="M180.6,235.4l46.6,47.9v-45.4h8.6v66l-46.6-47.7v44.8h-8.6v-65.6Z"/>
        <path class="st0" d="M255,237.9h38.6v8.6h-15v54.4h-8.5v-54.4h-15v-8.6h-.1Z"/>
        <path class="st0" d="M372.3,248l-6.4,6.3c-6.4-6.3-13.9-9.5-22.3-9.5s-13.5,2.4-18.5,7.1c-4.9,4.7-7.4,10.7-7.4,17.8s2.4,11.8,7.2,16.8c4.8,5,11.3,7.5,19.7,7.5,12.6,0,20.5-5.5,23.7-16.4h-17v-8.6h26.9c0,4.3-.3,7.8-.9,10.3-.6,2.6-1.8,5.4-3.6,8.5-1.8,3.1-4.2,5.9-7.3,8.3-3,2.5-6.3,4.2-9.7,5.3-3.4,1.1-7.6,1.6-12.3,1.6-10.9,0-19.6-3.4-26.1-10.3-6.5-6.8-9.7-14.7-9.7-23.5s3.3-17.2,9.9-23.7,14.7-9.8,24.1-9.8,10.7.8,15.4,2.5c4.7,2,9.4,5.1,14.3,9.8Z"/>
        <path class="st0" d="M423.2,235.5l29.8,65.5h-9l-7.3-16.1h-26.8l-7.2,16.1h-9l29.5-65.5ZM423.2,255.1l-10.1,22.5h20.3l-10.2-22.5Z"/>
        <path class="st0" d="M470.9,237.9h8.5v63.1h-8.5v-63.1Z"/>
        <path class="st0" d="M504.6,237.9h8.5v54.5h20.5v8.5h-29v-63Z"/>
        <path class="st0" d="M553.8,237.9h8.5v54.5h20.5v8.5h-29.1v-63h0Z"/>
        <path class="st0" d="M625.2,235.5l29.8,65.5h-9l-7.3-16.1h-26.8l-7.2,16.1h-9l29.5-65.5ZM625.2,255.1l-10.1,22.5h20.3l-10.2-22.5Z"/>
        <path class="st0" d="M674.4,237.9h13.7c6.8,0,12.3,1.7,16.6,5.1s6.4,7.7,6.4,13-1.4,8-4.1,11.2c-2.8,3.2-7.1,5.5-12.9,6.8l18.3,27h-9.9l-17.5-25.9h-1.9v25.9h-8.6v-63.1h0ZM683,245.5v22c12.7.3,19.1-3.4,19.1-11s-.7-4.9-2.2-6.6-3.5-2.9-5.9-3.5c-2.6-.6-6.2-.9-11-.9Z"/>
        <path class="st0" d="M734,237.9h15.3c12.1,0,21.1,3.2,27,9.6s8.9,13.7,8.9,21.9-3.1,15.6-9.2,22-15,9.6-26.6,9.6h-15.4v-63.1ZM742.6,246.3v46.1h.5c6.4,0,11.2-.3,14.5-.9,3.2-.6,6.3-1.8,9.2-3.8,2.9-1.9,5.2-4.5,6.9-7.7s2.6-6.8,2.6-10.6-1.4-9.2-4.1-13.2c-2.7-3.9-6-6.6-9.8-7.9-3.8-1.4-8.9-2-15.4-2h-4.4Z"/>
      </g>
      <g>
        <g>
          <g>
            <path class="st0" d="M391.6,49.4c0,2.6-2,4.8-4.6,5.1,1.6-.7,2.7-2.2,2.7-4s-2-4.4-4.4-4.4-2.8.8-3.6,1.9c.6-2.1,2.6-3.6,4.9-3.6,2.7-.1,5,2.2,5,5Z"/>
            <path class="st0" d="M402.7,42.5c0,2.6-2,4.8-4.5,5,1.7-.6,2.9-2.2,2.9-4.1s-2-4.4-4.4-4.4-3.4,1.1-4.1,2.7c.4-2.5,2.5-4.4,5-4.4,2.8.2,5.1,2.4,5.1,5.2Z"/>
            <path class="st0" d="M402.7,54.5c0,2.8-2.3,5.1-5.1,5.1s-4.7-1.9-5-4.4c.7,1.6,2.2,2.7,4.1,2.7s4.4-2,4.4-4.4-1.2-3.5-2.9-4.1c2.5.3,4.5,2.5,4.5,5.1Z"/>
            <path class="st0" d="M413.7,48.5c0,2.8-2.3,5.1-5.1,5.1s-1.4-.1-2-.4h.4c2.4,0,4.4-2,4.4-4.4s-2-4.4-4.4-4.4-1.4.2-2,.5c.9-.9,2.2-1.5,3.6-1.5,2.8,0,5.1,2.3,5.1,5.1Z"/>
            <path class="st0" d="M415.4,60.5c0,2.8-2.3,5.1-5.1,5.1s-4.2-1.5-4.8-3.5c.8,1.1,2.1,1.9,3.6,1.9,2.4,0,4.4-2,4.4-4.4s-1.3-3.6-3-4.2c2.7,0,4.9,2.3,4.9,5.1Z"/>
            <path class="st0" d="M405.3,67.2c0,2.8-2.3,5.1-5.1,5.1s-5.1-2.3-5.1-5.1,0-.6.1-.9c.3,2.2,2.1,3.8,4.4,3.8s4.4-2,4.4-4.4-.4-2.1-1-2.8c1.3.9,2.3,2.5,2.3,4.3Z"/>
          </g>
          <path class="st0" d="M444.2,91.3h0l-1.7,3.7h0l-1.2,2.7-4,8.5-1.9,4.1-2.8,1.6,1.5-3.3h0l2.3-5.1h0l3.4-7.6h0c.2-.8.3-1.6.3-2.3s0-1.3-.2-1.9c-.3-1.2-.8-2.2-1.7-2.7h0s-.1,0-.1-.1c-2-1.1-4.9,0-7.7,2.6q-.1.1-.2.2c-.3.3-.7.7-1,1-.4.5-.8,1-1.2,1.5-.2.2-.3.4-.5.6l-.4.8-3,6.4v.2c-.1,0-4,8.3-4,8.3l-5.1,10.9-.2.4h0l-.3.2c-.7.4-1.3.7-2,1.1h0c-.1.1-.2.1-.3.2l.2-.4,4.4-9.9h0l2.3-5h0l3.4-7.6h0c.7-3.2.2-5.8-1.6-6.9h0s-.1,0-.1-.1c-2-1.1-4.9,0-7.7,2.6q-.1.1-.2.2c-.9.9-1.8,1.9-2.7,3.1l-.4.8-2.9,6.2-.5,1-5.5,11.9-6.5,13.8-.2.4h0c-.1.1-.2.1-.3.2-.6.3-1.2.7-1.8,1h0c-.1.1-.2.1-.3.2l.2-.4,6-13.3,3.9-8.8.9-1.9c1.7-4.5,1.5-8.6-.9-10.1-.1-.1-.3-.2-.4-.2s-.1-.1-.2-.1c-.5-.2-1-.3-1.6-.2-1.8.1-3.9,1.1-5.9,3q-.1.1-.2.2c-.5.5-1,1.1-1.5,1.7-.6.8-1.3,1.6-1.8,2.6h0l-1.3,2.4-.4.8-4.5,8.6-12.8,24.1c-1.3,2.5-3.1,4.8-5.2,6.7h0c-.2.2-.4.3-.5.5-.2.2-.4.4-.6.5-2.1,1.8-4.1,3.1-6,3.9-.2.1-.4.2-.6.2-.2.1-.3.1-.5.2-2.1.7-4,.7-5.4-.2-5.2-3.2-2.9-16.5,5.2-29.8,1.2-2,2.5-3.8,3.8-5.6h0s1.7-2.1,4.1-5.7c0,0,0-.1.1-.1,0,0,0-.1.1-.1.8-1.2,1.7-2.6,2.7-4.1,0-.1.1-.1.1-.2s.1-.1.1-.2c1.9-3.1,3.9-6.7,5.8-10.7,2.6-5.5,4.8-11.6,5.9-17.7h-.6c-1.7.1-3.5-.2-5.1-.8s-3-1.5-4.3-2.6c-1.1.2-2.1.3-2.6.3-4.9,0-8.5-1.4-8.7-1.4-.3-.1-.5-.3-.6-.6,0-.3.1-.5.2-.7l3.2-3.1,3.3-3.1.8-.7v-.6c0-1.8.4-3.6,1-5.3.7-1.7,1.7-3.2,3-4.5s2.8-2.2,4.5-2.9c1.7-.6,3.5-.9,5.2-.9,1.8.1,3.5.5,5,1.3s2.9,1.9,4,3.2c.6.7,1.1,1.5,1.6,2.3-1.2-.3-2-.9-2-1h0c-.1-.1-.3-.3-.4-.4-1.2-1-2.5-1.7-3.9-2.1-1.4-.4-2.8-.6-4.2-.5-2.8.1-5.5,1.4-7.4,3.4-1.2,1.2-2.1,2.8-2.6,4.4-.1.3-.6,3-.6,3.3l-7.7,7c1,.1,2,.3,3.9.4,1,.1,2,.1,3.1.1s2.6-.1,3.9-.2c.6.6,1.2,1.1,1.9,1.5h0c1.6,1,3.5,1.7,5.4,1.8h.9c.1-1.1.2-2.3.3-3.4v-.2c0-.8,1.5-.9,1.5-.9v.9c0,1.1,0,2.3-.1,3.4,0,.7-.1,1.4-.2,2.1-1.8,20-12.7,36.1-12.9,36.4,0,0-10.8,14.9-13,24.5-.8,3.8-1.1,6.6.5,7.6,2.5,1.5,7.6-2.4,11.4-8.6.3-.4.5-.8.7-1.3l.6-1,15.1-24.9,5.5-9.1h.1v-.2h0c.2-.4,1.1-1.9,2.5-3.7q.1-.1.1-.2c1.8-2.2,4.5-4.8,7.7-5.8.3-.1.5-.2.8-.2.6-.1,1.2-.2,1.8-.2h.8c1.2-.1,2.2.2,3.1.8.2.1.3.2.5.3h.1c0,.1.1.2.1.2.5.4.8.9,1.1,1.4,0,0,0,.1.1.1,0,0,0,.1.1.1,0,.1.1.1.1.2h0v.2c.2.4.3.8.4,1.2.3-.5.6-1,.9-1.4.1-.1.1-.2.2-.3,0,0,0-.1.1-.1,0,0,0-.1.1-.1.3-.4.5-.7.8-1.1.1-.1.2-.2.3-.4.1-.1.2-.2.3-.3.4-.5.9-1,1.3-1.4s.1-.1.2-.2q.1-.1.2-.2c1.8-1.7,3.6-2.9,5.4-3.6.8-.3,1.6-.5,2.4-.6,1.3-.2,2.6.1,3.6.7h.1c0,.1.1.1.1.2.4.3.8.7,1.1,1.2h.1c0,.1.1.2.1.2,0,.1.1.1.1.2h0v.2c.2.3.3.7.4,1.1v.4h.2c.1-.2.1-.3.2-.4,0,0,0-.1.1-.1,0,0,0-.1.1-.1.3-.4.5-.7.8-1.1.1-.1.2-.2.3-.4.1-.1.2-.2.3-.3.4-.5.9-1,1.3-1.4s.1-.1.2-.2q.1-.1.2-.2c4-3.8,8.6-5.4,11.4-3.6h.1c0,.1.1.1.1.2.4.3.8.7,1.1,1.2h.1c0,.1.1.2.1.2,0,.1.1.2.1.2h0v.2c.2.3.3.7.4,1.1.4,0,.9,1.2,0,3.4Z"/>
        </g>
        <path class="st0" d="M392.5,185.6c-49.1,0-89.1-40-89.1-89.1S343.4,7.4,392.5,7.4s89.1,40,89.1,89.1-39.9,89.1-89.1,89.1ZM392.5,8.5c-48.5,0-88,39.5-88,88s39.5,88,88,88,88-39.5,88-88S441.1,8.5,392.5,8.5Z"/>
        <path class="st0" d="M392.5,193c-53.2,0-96.5-43.3-96.5-96.5S339.3,0,392.5,0s96.5,43.3,96.5,96.5-43.2,96.5-96.5,96.5ZM392.5,3.4c-51.3,0-93.1,41.8-93.1,93.1s41.8,93.1,93.1,93.1,93.1-41.8,93.1-93.1c0-51.3-41.7-93.1-93.1-93.1Z"/>
      </g>
      <path class="st0" d="M392.5,185.6c-49.1,0-89.1-40-89.1-89.1S343.4,7.4,392.5,7.4s89.1,40,89.1,89.1-39.9,89.1-89.1,89.1ZM392.5,8.5c-48.5,0-88,39.5-88,88s39.5,88,88,88,88-39.5,88-88S441.1,8.5,392.5,8.5Z"/>
    </g>
  </g>
</svg>